<svg xmlns="http://www.w3.org/2000/svg"   viewBox="0 0 16 16" fill="currentColor"><path d="M8 4a.5.5 0 0 1 .5.5V6a.5.5 0 0 1-1 0V4.5A.5.5 0 0 1 8 4zM3.732 5.732a.5.5 0 0 1 .707 0l.915.914a.5.5 0 1 1-.708.708l-.914-.915a.5.5 0 0 1 0-.707zM2 10a.5.5 0 0 1 .5-.5h1.586a.5.5 0 0 1 0 1H2.5A.5.5 0 0 1 2 10zm9.5 0a.5.5 0 0 1 .5-.5h1.5a.5.5 0 0 1 0 1H12a.5.5 0 0 1-.5-.5zm.754-4.246a.389.389 0 0 0-.527-.02L9.44 7.952l.234 1.267 1.414-1.414a.389.389 0 0 0-.334-.051zm-5.276-.9a.5.5 0 0 1 .707 0L10.5 7.27a.5.5 0 0 1-.708.708L7.5 5.685 5.207 7.977a.5.5 0 0 1-.707-.708l2.5-2.415z"/><rect   x="7.5" y="10.5" rx=".5"/></svg>