<svg xmlns="http://www.w3.org/2000/svg"   viewBox="0 0 16 16" fill="currentColor"><path d="M6 12.5a.5.5 0 0 1 .5-.5h3a.5.5 0 0 1 0 1h-3a.5.5 0 0 1-.5-.5ZM3 8.062C3 6.76 4.235 5.765 5.53 5.886a26.58 26.58 0 0 0 4.94 0C11.765 5.765 13 6.76 13 8.062v1.157a.933.933 0 0 1-.765.935c-.845.147-2.34.346-4.235.346-1.895 0-3.39-.2-4.235-.346A.933.933 0 0 1 3 9.219V8.062Zm4.542-.827a.25.25 0 0 0-.217.068l-.92.9a24.767 24.767 0 0 1-1.871-.183.25.25 0 0 0-.068.495c.55.076 1.232.149 2.02.193a.25.25 0 0 0 .189-.071l.754-.736.847 1.71a.25.25 0 0 0 .404.062l.932-.97a25.286 25.286 0 0 0 1.922-.188.25.25 0 0 0-.068-.495c-.538.074-1.207.145-1.98.189a.25.25 0 0 0-.166.076l-.754.785-.842-1.7a.25.25 0 0 0-.182-.135Z"/><path d="M8 1.783C7.015.936 5.587.81 4.287.94c-1.514.153-3.042.672-3.994 1.105A.5.5 0 0 0 0 2.5v11a.5.5 0 0 0 .707.455c.882-.4 2.303-.881 3.68-1.02 1.409-.142 2.59.087 3.223.877a.5.5 0 0 0 .78 0c.633-.79 1.814-1.019 3.222-.877 1.378.139 2.8.62 3.681 1.02A.5.5 0 0 0 16 13.5v-11a.5.5 0 0 0-.293-.455c-.952-.433-2.48-.952-3.994-1.105C10.413.809 8.985.936 8 1.783z"/></svg>